<?xml version="1.0" standalone="no"?>
<!DOCTYPE svg PUBLIC "-//W3C//DTD SVG 1.1//EN" "http://www.w3.org/Graphics/SVG/1.1/DTD/svg11.dtd" >
<svg xmlns="http://www.w3.org/2000/svg">
<metadata>Generated by IcoMoon</metadata>
<defs>
<font id="Fontcraft" horiz-adv-x="1024">
<font-face units-per-em="1024" ascent="960" descent="-64" />
<missing-glyph horiz-adv-x="1024" />
<glyph unicode="&#x20;" horiz-adv-x="512" d="" />
<glyph unicode="&#xe900;" glyph-name="axe" d="M512 0h64v-64h-64zM448 0h64v-64h-64zM512 64h64v-64h-64zM448 64h64v-64h-64zM512 128h64v-64h-64zM448 128h64v-64h-64zM512 192h64v-64h-64zM448 192h64v-64h-64zM512 256h64v-64h-64zM448 256h64v-64h-64zM512 320h64v-64h-64zM448 320h64v-64h-64zM512 384h64v-64h-64zM448 384h64v-64h-64zM512 448h64v-64h-64zM448 448h64v-64h-64zM512 512h64v-64h-64zM448 512h64v-64h-64zM512 576h64v-64h-64zM448 576h64v-64h-64zM512 640h64v-64h-64zM448 640h64v-64h-64zM256 640h64v-64h-64zM192 640h64v-64h-64zM512 704h64v-64h-64zM448 704h64v-64h-64zM384 704h64v-64h-64zM320 704h64v-64h-64zM256 704h64v-64h-64zM192 704h64v-64h-64zM128 704h64v-64h-64zM576 768h64v-64h-64zM512 768h64v-64h-64zM448 768h64v-64h-64zM384 768h64v-64h-64zM320 768h64v-64h-64zM256 768h64v-64h-64zM192 768h64v-64h-64zM128 768h64v-64h-64zM576 832h64v-64h-64zM512 832h64v-64h-64zM448 832h64v-64h-64zM384 832h64v-64h-64zM320 832h64v-64h-64zM256 832h64v-64h-64zM192 832h64v-64h-64zM128 832h64v-64h-64zM512 896h64v-64h-64zM448 896h64v-64h-64zM384 896h64v-64h-64zM320 896h64v-64h-64zM256 896h64v-64h-64zM192 896h64v-64h-64zM128 896h64v-64h-64zM512 960h64v-64h-64zM448 960h64v-64h-64zM256 960h64v-64h-64zM192 960h64v-64h-64z" />
<glyph unicode="&#xe901;" glyph-name="bucket" d="M576 128h64v-64h-64zM512 128h64v-64h-64zM448 128h64v-64h-64zM384 128h64v-64h-64zM640 192h64v-64h-64zM576 192h64v-64h-64zM512 192h64v-64h-64zM448 192h64v-64h-64zM384 192h64v-64h-64zM320 192h64v-64h-64zM640 256h64v-64h-64zM576 256h64v-64h-64zM512 256h64v-64h-64zM448 256h64v-64h-64zM384 256h64v-64h-64zM320 256h64v-64h-64zM704 320h64v-64h-64zM640 320h64v-64h-64zM576 320h64v-64h-64zM512 320h64v-64h-64zM448 320h64v-64h-64zM384 320h64v-64h-64zM320 320h64v-64h-64zM256 320h64v-64h-64zM704 384h64v-64h-64zM640 384h64v-64h-64zM576 384h64v-64h-64zM512 384h64v-64h-64zM448 384h64v-64h-64zM384 384h64v-64h-64zM320 384h64v-64h-64zM256 384h64v-64h-64zM768 448h64v-64h-64zM704 448h64v-64h-64zM640 448h64v-64h-64zM576 448h64v-64h-64zM512 448h64v-64h-64zM448 448h64v-64h-64zM384 448h64v-64h-64zM320 448h64v-64h-64zM256 448h64v-64h-64zM192 448h64v-64h-64zM768 512h64v-64h-64zM704 512h64v-64h-64zM640 512h64v-64h-64zM576 512h64v-64h-64zM512 512h64v-64h-64zM448 512h64v-64h-64zM384 512h64v-64h-64zM320 512h64v-64h-64zM256 512h64v-64h-64zM192 512h64v-64h-64zM768 576h64v-64h-64zM704 576h64v-64h-64zM640 576h64v-64h-64zM320 576h64v-64h-64zM256 576h64v-64h-64zM192 576h64v-64h-64zM768 640h64v-64h-64zM192 640h64v-64h-64zM704 704h64v-64h-64zM640 704h64v-64h-64zM320 704h64v-64h-64zM256 704h64v-64h-64zM576 768h64v-64h-64zM512 768h64v-64h-64zM448 768h64v-64h-64zM384 768h64v-64h-64z" />
<glyph unicode="&#xe902;" glyph-name="bucket-outline" d="M576 128h64v-64h-64zM512 128h64v-64h-64zM448 128h64v-64h-64zM384 128h64v-64h-64zM640 192h64v-64h-64zM320 192h64v-64h-64zM640 256h64v-64h-64zM320 256h64v-64h-64zM704 320h64v-64h-64zM256 320h64v-64h-64zM704 384h64v-64h-64zM256 384h64v-64h-64zM768 448h64v-64h-64zM192 448h64v-64h-64zM768 512h64v-64h-64zM576 512h64v-64h-64zM512 512h64v-64h-64zM448 512h64v-64h-64zM384 512h64v-64h-64zM192 512h64v-64h-64zM768 576h64v-64h-64zM704 576h64v-64h-64zM640 576h64v-64h-64zM320 576h64v-64h-64zM256 576h64v-64h-64zM192 576h64v-64h-64zM768 640h64v-64h-64zM192 640h64v-64h-64zM704 704h64v-64h-64zM640 704h64v-64h-64zM320 704h64v-64h-64zM256 704h64v-64h-64zM576 768h64v-64h-64zM512 768h64v-64h-64zM448 768h64v-64h-64zM384 768h64v-64h-64z" />
<glyph unicode="&#xe903;" glyph-name="crafting-arrow" horiz-adv-x="1408" d="M896 0h64v-64h-64zM960 64h64v-64h-64zM896 64h64v-64h-64zM1024 128h64v-64h-64zM960 128h64v-64h-64zM896 128h64v-64h-64zM1088 192h64v-64h-64zM1024 192h64v-64h-64zM960 192h64v-64h-64zM896 192h64v-64h-64zM1152 256h64v-64h-64zM1088 256h64v-64h-64zM1024 256h64v-64h-64zM960 256h64v-64h-64zM896 256h64v-64h-64zM1216 320h64v-64h-64zM1152 320h64v-64h-64zM1088 320h64v-64h-64zM1024 320h64v-64h-64zM960 320h64v-64h-64zM896 320h64v-64h-64zM1280 384h64v-64h-64zM1216 384h64v-64h-64zM1152 384h64v-64h-64zM1088 384h64v-64h-64zM1024 384h64v-64h-64zM960 384h64v-64h-64zM896 384h64v-64h-64zM832 384h64v-64h-64zM768 384h64v-64h-64zM704 384h64v-64h-64zM640 384h64v-64h-64zM576 384h64v-64h-64zM512 384h64v-64h-64zM448 384h64v-64h-64zM384 384h64v-64h-64zM320 384h64v-64h-64zM256 384h64v-64h-64zM192 384h64v-64h-64zM128 384h64v-64h-64zM64 384h64v-64h-64zM0 384h64v-64h-64zM1344 448h64v-64h-64zM1280 448h64v-64h-64zM1216 448h64v-64h-64zM1152 448h64v-64h-64zM1088 448h64v-64h-64zM1024 448h64v-64h-64zM960 448h64v-64h-64zM896 448h64v-64h-64zM832 448h64v-64h-64zM768 448h64v-64h-64zM704 448h64v-64h-64zM640 448h64v-64h-64zM576 448h64v-64h-64zM512 448h64v-64h-64zM448 448h64v-64h-64zM384 448h64v-64h-64zM320 448h64v-64h-64zM256 448h64v-64h-64zM192 448h64v-64h-64zM128 448h64v-64h-64zM64 448h64v-64h-64zM0 448h64v-64h-64zM1344 512h64v-64h-64zM1280 512h64v-64h-64zM1216 512h64v-64h-64zM1152 512h64v-64h-64zM1088 512h64v-64h-64zM1024 512h64v-64h-64zM960 512h64v-64h-64zM896 512h64v-64h-64zM832 512h64v-64h-64zM768 512h64v-64h-64zM704 512h64v-64h-64zM640 512h64v-64h-64zM576 512h64v-64h-64zM512 512h64v-64h-64zM448 512h64v-64h-64zM384 512h64v-64h-64zM320 512h64v-64h-64zM256 512h64v-64h-64zM192 512h64v-64h-64zM128 512h64v-64h-64zM64 512h64v-64h-64zM0 512h64v-64h-64zM1280 576h64v-64h-64zM1216 576h64v-64h-64zM1152 576h64v-64h-64zM1088 576h64v-64h-64zM1024 576h64v-64h-64zM960 576h64v-64h-64zM896 576h64v-64h-64zM832 576h64v-64h-64zM768 576h64v-64h-64zM704 576h64v-64h-64zM640 576h64v-64h-64zM576 576h64v-64h-64zM512 576h64v-64h-64zM448 576h64v-64h-64zM384 576h64v-64h-64zM320 576h64v-64h-64zM256 576h64v-64h-64zM192 576h64v-64h-64zM128 576h64v-64h-64zM64 576h64v-64h-64zM0 576h64v-64h-64zM1216 640h64v-64h-64zM1152 640h64v-64h-64zM1088 640h64v-64h-64zM1024 640h64v-64h-64zM960 640h64v-64h-64zM896 640h64v-64h-64zM1152 704h64v-64h-64zM1088 704h64v-64h-64zM1024 704h64v-64h-64zM960 704h64v-64h-64zM896 704h64v-64h-64zM1088 768h64v-64h-64zM1024 768h64v-64h-64zM960 768h64v-64h-64zM896 768h64v-64h-64zM1024 832h64v-64h-64zM960 832h64v-64h-64zM896 832h64v-64h-64zM960 896h64v-64h-64zM896 896h64v-64h-64zM896 960h64v-64h-64z" />
<glyph unicode="&#xe904;" glyph-name="crafting-arrow-outline" horiz-adv-x="1408" d="M896 0h64v-64h-64zM960 64h64v-64h-64zM896 64h64v-64h-64zM1024 128h64v-64h-64zM960 128h64v-64h-64zM896 128h64v-64h-64zM1088 192h64v-64h-64zM1024 192h64v-64h-64zM896 192h64v-64h-64zM1152 256h64v-64h-64zM1088 256h64v-64h-64zM896 256h64v-64h-64zM1216 320h64v-64h-64zM1152 320h64v-64h-64zM896 320h64v-64h-64zM1280 384h64v-64h-64zM1216 384h64v-64h-64zM896 384h64v-64h-64zM832 384h64v-64h-64zM768 384h64v-64h-64zM704 384h64v-64h-64zM640 384h64v-64h-64zM576 384h64v-64h-64zM512 384h64v-64h-64zM448 384h64v-64h-64zM384 384h64v-64h-64zM320 384h64v-64h-64zM256 384h64v-64h-64zM192 384h64v-64h-64zM128 384h64v-64h-64zM64 384h64v-64h-64zM0 384h64v-64h-64zM1344 448h64v-64h-64zM1280 448h64v-64h-64zM0 448h64v-64h-64zM1344 512h64v-64h-64zM1280 512h64v-64h-64zM0 512h64v-64h-64zM1280 576h64v-64h-64zM1216 576h64v-64h-64zM896 576h64v-64h-64zM832 576h64v-64h-64zM768 576h64v-64h-64zM704 576h64v-64h-64zM640 576h64v-64h-64zM576 576h64v-64h-64zM512 576h64v-64h-64zM448 576h64v-64h-64zM384 576h64v-64h-64zM320 576h64v-64h-64zM256 576h64v-64h-64zM192 576h64v-64h-64zM128 576h64v-64h-64zM64 576h64v-64h-64zM0 576h64v-64h-64zM1216 640h64v-64h-64zM1152 640h64v-64h-64zM896 640h64v-64h-64zM1152 704h64v-64h-64zM1088 704h64v-64h-64zM896 704h64v-64h-64zM1088 768h64v-64h-64zM1024 768h64v-64h-64zM896 768h64v-64h-64zM1024 832h64v-64h-64zM960 832h64v-64h-64zM896 832h64v-64h-64zM960 896h64v-64h-64zM896 896h64v-64h-64zM896 960h64v-64h-64z" />
<glyph unicode="&#xe905;" glyph-name="crafting-shapeless" d="M768 128h64v-64h-64zM832 192h64v-64h-64zM768 192h64v-64h-64zM704 192h64v-64h-64zM640 192h64v-64h-64zM192 192h64v-64h-64zM128 192h64v-64h-64zM64 192h64v-64h-64zM896 256h64v-64h-64zM832 256h64v-64h-64zM768 256h64v-64h-64zM704 256h64v-64h-64zM640 256h64v-64h-64zM576 256h64v-64h-64zM256 256h64v-64h-64zM192 256h64v-64h-64zM128 256h64v-64h-64zM64 256h64v-64h-64zM832 320h64v-64h-64zM768 320h64v-64h-64zM704 320h64v-64h-64zM640 320h64v-64h-64zM576 320h64v-64h-64zM512 320h64v-64h-64zM320 320h64v-64h-64zM256 320h64v-64h-64zM192 320h64v-64h-64zM128 320h64v-64h-64zM64 320h64v-64h-64zM768 384h64v-64h-64zM576 384h64v-64h-64zM512 384h64v-64h-64zM448 384h64v-64h-64zM320 384h64v-64h-64zM256 384h64v-64h-64zM512 448h64v-64h-64zM448 448h64v-64h-64zM384 448h64v-64h-64zM448 512h64v-64h-64zM384 512h64v-64h-64zM320 512h64v-64h-64zM768 576h64v-64h-64zM576 576h64v-64h-64zM512 576h64v-64h-64zM384 576h64v-64h-64zM320 576h64v-64h-64zM256 576h64v-64h-64zM832 640h64v-64h-64zM768 640h64v-64h-64zM704 640h64v-64h-64zM640 640h64v-64h-64zM576 640h64v-64h-64zM512 640h64v-64h-64zM320 640h64v-64h-64zM256 640h64v-64h-64zM192 640h64v-64h-64zM128 640h64v-64h-64zM64 640h64v-64h-64zM896 704h64v-64h-64zM832 704h64v-64h-64zM768 704h64v-64h-64zM704 704h64v-64h-64zM640 704h64v-64h-64zM576 704h64v-64h-64zM256 704h64v-64h-64zM192 704h64v-64h-64zM128 704h64v-64h-64zM64 704h64v-64h-64zM832 768h64v-64h-64zM768 768h64v-64h-64zM704 768h64v-64h-64zM640 768h64v-64h-64zM192 768h64v-64h-64zM128 768h64v-64h-64zM64 768h64v-64h-64zM768 832h64v-64h-64z" />
<glyph unicode="&#xe906;" glyph-name="crafting-shapeless-outline" d="M768 128h64v-64h-64zM832 192h64v-64h-64zM704 192h64v-64h-64zM640 192h64v-64h-64zM192 192h64v-64h-64zM128 192h64v-64h-64zM64 192h64v-64h-64zM896 256h64v-64h-64zM576 256h64v-64h-64zM256 256h64v-64h-64zM64 256h64v-64h-64zM832 320h64v-64h-64zM704 320h64v-64h-64zM640 320h64v-64h-64zM512 320h64v-64h-64zM320 320h64v-64h-64zM192 320h64v-64h-64zM128 320h64v-64h-64zM64 320h64v-64h-64zM768 384h64v-64h-64zM576 384h64v-64h-64zM448 384h64v-64h-64zM320 384h64v-64h-64zM256 384h64v-64h-64zM512 448h64v-64h-64zM384 448h64v-64h-64zM448 512h64v-64h-64zM320 512h64v-64h-64zM768 576h64v-64h-64zM576 576h64v-64h-64zM512 576h64v-64h-64zM384 576h64v-64h-64zM256 576h64v-64h-64zM832 640h64v-64h-64zM704 640h64v-64h-64zM640 640h64v-64h-64zM512 640h64v-64h-64zM320 640h64v-64h-64zM192 640h64v-64h-64zM128 640h64v-64h-64zM64 640h64v-64h-64zM896 704h64v-64h-64zM576 704h64v-64h-64zM256 704h64v-64h-64zM64 704h64v-64h-64zM832 768h64v-64h-64zM704 768h64v-64h-64zM640 768h64v-64h-64zM192 768h64v-64h-64zM128 768h64v-64h-64zM64 768h64v-64h-64zM768 832h64v-64h-64z" />
<glyph unicode="&#xe907;" glyph-name="flame" d="M576 64h64v-64h-64zM512 64h64v-64h-64zM448 64h64v-64h-64zM384 64h64v-64h-64zM640 128h64v-64h-64zM320 128h64v-64h-64zM704 192h64v-64h-64zM576 192h64v-64h-64zM512 192h64v-64h-64zM448 192h64v-64h-64zM384 192h64v-64h-64zM256 192h64v-64h-64zM768 256h64v-64h-64zM640 256h64v-64h-64zM576 256h64v-64h-64zM512 256h64v-64h-64zM448 256h64v-64h-64zM384 256h64v-64h-64zM320 256h64v-64h-64zM192 256h64v-64h-64zM832 320h64v-64h-64zM704 320h64v-64h-64zM640 320h64v-64h-64zM512 320h64v-64h-64zM448 320h64v-64h-64zM384 320h64v-64h-64zM320 320h64v-64h-64zM256 320h64v-64h-64zM128 320h64v-64h-64zM832 384h64v-64h-64zM704 384h64v-64h-64zM576 384h64v-64h-64zM512 384h64v-64h-64zM448 384h64v-64h-64zM384 384h64v-64h-64zM256 384h64v-64h-64zM128 384h64v-64h-64zM832 448h64v-64h-64zM704 448h64v-64h-64zM640 448h64v-64h-64zM576 448h64v-64h-64zM512 448h64v-64h-64zM448 448h64v-64h-64zM384 448h64v-64h-64zM320 448h64v-64h-64zM256 448h64v-64h-64zM128 448h64v-64h-64zM768 512h64v-64h-64zM640 512h64v-64h-64zM576 512h64v-64h-64zM512 512h64v-64h-64zM448 512h64v-64h-64zM384 512h64v-64h-64zM320 512h64v-64h-64zM192 512h64v-64h-64zM768 576h64v-64h-64zM640 576h64v-64h-64zM576 576h64v-64h-64zM448 576h64v-64h-64zM384 576h64v-64h-64zM320 576h64v-64h-64zM192 576h64v-64h-64zM768 640h64v-64h-64zM640 640h64v-64h-64zM512 640h64v-64h-64zM448 640h64v-64h-64zM320 640h64v-64h-64zM192 640h64v-64h-64zM768 704h64v-64h-64zM640 704h64v-64h-64zM512 704h64v-64h-64zM384 704h64v-64h-64zM256 704h64v-64h-64zM704 768h64v-64h-64zM512 768h64v-64h-64zM384 768h64v-64h-64zM256 768h64v-64h-64zM640 832h64v-64h-64zM448 832h64v-64h-64zM320 832h64v-64h-64zM640 896h64v-64h-64zM512 896h64v-64h-64zM576 960h64v-64h-64z" />
<glyph unicode="&#xe908;" glyph-name="flame-furnace" d="M832 128h64v-64h-64zM768 128h64v-64h-64zM704 128h64v-64h-64zM640 128h64v-64h-64zM576 128h64v-64h-64zM512 128h64v-64h-64zM448 128h64v-64h-64zM384 128h64v-64h-64zM320 128h64v-64h-64zM256 128h64v-64h-64zM192 128h64v-64h-64zM128 128h64v-64h-64zM704 192h64v-64h-64zM640 192h64v-64h-64zM512 192h64v-64h-64zM448 192h64v-64h-64zM384 192h64v-64h-64zM256 192h64v-64h-64zM192 192h64v-64h-64zM768 256h64v-64h-64zM448 256h64v-64h-64zM384 256h64v-64h-64zM192 256h64v-64h-64zM128 256h64v-64h-64zM768 320h64v-64h-64zM704 320h64v-64h-64zM448 320h64v-64h-64zM256 320h64v-64h-64zM192 320h64v-64h-64zM128 320h64v-64h-64zM704 384h64v-64h-64zM512 384h64v-64h-64zM448 384h64v-64h-64zM256 384h64v-64h-64zM192 384h64v-64h-64zM768 448h64v-64h-64zM704 448h64v-64h-64zM512 448h64v-64h-64zM448 448h64v-64h-64zM256 448h64v-64h-64zM192 448h64v-64h-64zM768 512h64v-64h-64zM704 512h64v-64h-64zM512 512h64v-64h-64zM448 512h64v-64h-64zM192 512h64v-64h-64zM704 576h64v-64h-64zM512 576h64v-64h-64zM256 576h64v-64h-64zM768 640h64v-64h-64zM704 640h64v-64h-64zM512 640h64v-64h-64zM256 640h64v-64h-64zM768 704h64v-64h-64zM448 704h64v-64h-64zM192 704h64v-64h-64zM832 768h64v-64h-64zM512 768h64v-64h-64z" />
<glyph unicode="&#xe909;" glyph-name="flame-outline" d="M576 128h64v-64h-64zM512 128h64v-64h-64zM448 128h64v-64h-64zM384 128h64v-64h-64zM640 192h64v-64h-64zM320 192h64v-64h-64zM704 256h64v-64h-64zM256 256h64v-64h-64zM768 320h64v-64h-64zM576 320h64v-64h-64zM192 320h64v-64h-64zM768 384h64v-64h-64zM640 384h64v-64h-64zM320 384h64v-64h-64zM192 384h64v-64h-64zM768 448h64v-64h-64zM192 448h64v-64h-64zM704 512h64v-64h-64zM256 512h64v-64h-64zM704 576h64v-64h-64zM512 576h64v-64h-64zM256 576h64v-64h-64zM704 640h64v-64h-64zM576 640h64v-64h-64zM384 640h64v-64h-64zM256 640h64v-64h-64zM704 704h64v-64h-64zM576 704h64v-64h-64zM448 704h64v-64h-64zM320 704h64v-64h-64zM640 768h64v-64h-64zM576 768h64v-64h-64zM448 768h64v-64h-64zM320 768h64v-64h-64zM576 832h64v-64h-64zM512 832h64v-64h-64zM576 896h64v-64h-64z" />
<glyph unicode="&#xe90a;" glyph-name="hoe" d="M512 0h64v-64h-64zM448 0h64v-64h-64zM512 64h64v-64h-64zM448 64h64v-64h-64zM512 128h64v-64h-64zM448 128h64v-64h-64zM512 192h64v-64h-64zM448 192h64v-64h-64zM512 256h64v-64h-64zM448 256h64v-64h-64zM512 320h64v-64h-64zM448 320h64v-64h-64zM512 384h64v-64h-64zM448 384h64v-64h-64zM512 448h64v-64h-64zM448 448h64v-64h-64zM512 512h64v-64h-64zM448 512h64v-64h-64zM512 576h64v-64h-64zM448 576h64v-64h-64zM512 640h64v-64h-64zM448 640h64v-64h-64zM512 704h64v-64h-64zM448 704h64v-64h-64zM512 768h64v-64h-64zM448 768h64v-64h-64zM512 832h64v-64h-64zM448 832h64v-64h-64zM192 832h64v-64h-64zM128 832h64v-64h-64zM512 896h64v-64h-64zM448 896h64v-64h-64zM384 896h64v-64h-64zM320 896h64v-64h-64zM256 896h64v-64h-64zM192 896h64v-64h-64zM128 896h64v-64h-64zM576 960h64v-64h-64zM512 960h64v-64h-64zM448 960h64v-64h-64zM320 960h64v-64h-64zM256 960h64v-64h-64zM192 960h64v-64h-64z" />
<glyph unicode="&#xe90b;" glyph-name="ingot" d="M320 192h64v-64h-64zM192 192h64v-64h-64zM512 256h64v-64h-64zM448 256h64v-64h-64zM384 256h64v-64h-64zM320 256h64v-64h-64zM192 256h64v-64h-64zM128 256h64v-64h-64zM704 320h64v-64h-64zM640 320h64v-64h-64zM576 320h64v-64h-64zM512 320h64v-64h-64zM448 320h64v-64h-64zM384 320h64v-64h-64zM320 320h64v-64h-64zM192 320h64v-64h-64zM128 320h64v-64h-64zM64 320h64v-64h-64zM896 384h64v-64h-64zM832 384h64v-64h-64zM768 384h64v-64h-64zM704 384h64v-64h-64zM640 384h64v-64h-64zM576 384h64v-64h-64zM512 384h64v-64h-64zM448 384h64v-64h-64zM384 384h64v-64h-64zM320 384h64v-64h-64zM192 384h64v-64h-64zM128 384h64v-64h-64zM64 384h64v-64h-64zM896 448h64v-64h-64zM832 448h64v-64h-64zM768 448h64v-64h-64zM704 448h64v-64h-64zM640 448h64v-64h-64zM576 448h64v-64h-64zM512 448h64v-64h-64zM256 448h64v-64h-64zM128 448h64v-64h-64zM64 448h64v-64h-64zM896 512h64v-64h-64zM832 512h64v-64h-64zM768 512h64v-64h-64zM704 512h64v-64h-64zM448 512h64v-64h-64zM384 512h64v-64h-64zM320 512h64v-64h-64zM256 512h64v-64h-64zM192 512h64v-64h-64zM64 512h64v-64h-64zM640 576h64v-64h-64zM576 576h64v-64h-64zM512 576h64v-64h-64zM448 576h64v-64h-64zM384 576h64v-64h-64zM320 576h64v-64h-64zM256 576h64v-64h-64zM192 576h64v-64h-64zM128 576h64v-64h-64zM832 640h64v-64h-64zM768 640h64v-64h-64zM704 640h64v-64h-64zM640 640h64v-64h-64zM576 640h64v-64h-64zM512 640h64v-64h-64zM448 640h64v-64h-64zM384 640h64v-64h-64zM320 640h64v-64h-64zM256 640h64v-64h-64zM768 704h64v-64h-64zM704 704h64v-64h-64zM640 704h64v-64h-64zM576 704h64v-64h-64zM512 704h64v-64h-64zM448 704h64v-64h-64zM704 768h64v-64h-64zM640 768h64v-64h-64z" />
<glyph unicode="&#xe90c;" glyph-name="ingot-outline" d="M320 128h64v-64h-64zM256 128h64v-64h-64zM192 128h64v-64h-64zM512 192h64v-64h-64zM448 192h64v-64h-64zM384 192h64v-64h-64zM256 192h64v-64h-64zM128 192h64v-64h-64zM704 256h64v-64h-64zM640 256h64v-64h-64zM576 256h64v-64h-64zM256 256h64v-64h-64zM64 256h64v-64h-64zM896 320h64v-64h-64zM832 320h64v-64h-64zM768 320h64v-64h-64zM256 320h64v-64h-64zM0 320h64v-64h-64zM960 384h64v-64h-64zM256 384h64v-64h-64zM0 384h64v-64h-64zM960 448h64v-64h-64zM448 448h64v-64h-64zM384 448h64v-64h-64zM320 448h64v-64h-64zM192 448h64v-64h-64zM0 448h64v-64h-64zM960 512h64v-64h-64zM640 512h64v-64h-64zM576 512h64v-64h-64zM512 512h64v-64h-64zM128 512h64v-64h-64zM0 512h64v-64h-64zM960 576h64v-64h-64zM896 576h64v-64h-64zM832 576h64v-64h-64zM768 576h64v-64h-64zM704 576h64v-64h-64zM64 576h64v-64h-64zM0 576h64v-64h-64zM896 640h64v-64h-64zM192 640h64v-64h-64zM128 640h64v-64h-64zM64 640h64v-64h-64zM832 704h64v-64h-64zM384 704h64v-64h-64zM320 704h64v-64h-64zM256 704h64v-64h-64zM768 768h64v-64h-64zM576 768h64v-64h-64zM512 768h64v-64h-64zM448 768h64v-64h-64zM704 832h64v-64h-64zM640 832h64v-64h-64z" />
<glyph unicode="&#xe90d;" glyph-name="nugget" d="M512 256h64v-64h-64zM448 256h64v-64h-64zM576 320h64v-64h-64zM512 320h64v-64h-64zM448 320h64v-64h-64zM384 320h64v-64h-64zM576 384h64v-64h-64zM512 384h64v-64h-64zM448 384h64v-64h-64zM384 384h64v-64h-64zM576 448h64v-64h-64zM512 448h64v-64h-64zM448 448h64v-64h-64zM384 448h64v-64h-64zM640 512h64v-64h-64zM576 512h64v-64h-64zM512 512h64v-64h-64zM448 512h64v-64h-64zM384 512h64v-64h-64zM320 512h64v-64h-64zM640 576h64v-64h-64zM576 576h64v-64h-64zM512 576h64v-64h-64zM448 576h64v-64h-64zM384 576h64v-64h-64zM320 576h64v-64h-64zM576 640h64v-64h-64zM512 640h64v-64h-64zM448 640h64v-64h-64zM384 640h64v-64h-64zM320 640h64v-64h-64zM512 704h64v-64h-64zM448 704h64v-64h-64zM384 704h64v-64h-64z" />
<glyph unicode="&#xe90e;" glyph-name="nugget-outline" d="M512 256h64v-64h-64zM448 256h64v-64h-64zM576 320h64v-64h-64zM384 320h64v-64h-64zM576 384h64v-64h-64zM384 384h64v-64h-64zM576 448h64v-64h-64zM384 448h64v-64h-64zM640 512h64v-64h-64zM320 512h64v-64h-64zM640 576h64v-64h-64zM320 576h64v-64h-64zM576 640h64v-64h-64zM320 640h64v-64h-64zM512 704h64v-64h-64zM448 704h64v-64h-64zM384 704h64v-64h-64z" />
<glyph unicode="&#xe90f;" glyph-name="pickaxe" d="M512 0h64v-64h-64zM448 0h64v-64h-64zM512 64h64v-64h-64zM448 64h64v-64h-64zM512 128h64v-64h-64zM448 128h64v-64h-64zM512 192h64v-64h-64zM448 192h64v-64h-64zM512 256h64v-64h-64zM448 256h64v-64h-64zM512 320h64v-64h-64zM448 320h64v-64h-64zM512 384h64v-64h-64zM448 384h64v-64h-64zM512 448h64v-64h-64zM448 448h64v-64h-64zM512 512h64v-64h-64zM448 512h64v-64h-64zM512 576h64v-64h-64zM448 576h64v-64h-64zM512 640h64v-64h-64zM448 640h64v-64h-64zM896 704h64v-64h-64zM832 704h64v-64h-64zM768 704h64v-64h-64zM512 704h64v-64h-64zM448 704h64v-64h-64zM192 704h64v-64h-64zM128 704h64v-64h-64zM64 704h64v-64h-64zM832 768h64v-64h-64zM768 768h64v-64h-64zM704 768h64v-64h-64zM512 768h64v-64h-64zM448 768h64v-64h-64zM256 768h64v-64h-64zM192 768h64v-64h-64zM128 768h64v-64h-64zM768 832h64v-64h-64zM704 832h64v-64h-64zM640 832h64v-64h-64zM576 832h64v-64h-64zM512 832h64v-64h-64zM448 832h64v-64h-64zM384 832h64v-64h-64zM320 832h64v-64h-64zM256 832h64v-64h-64zM192 832h64v-64h-64zM704 896h64v-64h-64zM640 896h64v-64h-64zM576 896h64v-64h-64zM512 896h64v-64h-64zM448 896h64v-64h-64zM384 896h64v-64h-64zM320 896h64v-64h-64zM256 896h64v-64h-64zM512 960h64v-64h-64zM448 960h64v-64h-64z" />
<glyph unicode="&#xe910;" glyph-name="redstone-dust" d="M576 128h64v-64h-64zM512 128h64v-64h-64zM448 128h64v-64h-64zM384 128h64v-64h-64zM704 192h64v-64h-64zM640 192h64v-64h-64zM512 192h64v-64h-64zM384 192h64v-64h-64zM320 192h64v-64h-64zM256 192h64v-64h-64zM768 256h64v-64h-64zM704 256h64v-64h-64zM640 256h64v-64h-64zM576 256h64v-64h-64zM448 256h64v-64h-64zM320 256h64v-64h-64zM192 256h64v-64h-64zM832 320h64v-64h-64zM768 320h64v-64h-64zM704 320h64v-64h-64zM640 320h64v-64h-64zM576 320h64v-64h-64zM512 320h64v-64h-64zM384 320h64v-64h-64zM256 320h64v-64h-64zM128 320h64v-64h-64zM832 384h64v-64h-64zM768 384h64v-64h-64zM704 384h64v-64h-64zM640 384h64v-64h-64zM576 384h64v-64h-64zM512 384h64v-64h-64zM448 384h64v-64h-64zM320 384h64v-64h-64zM192 384h64v-64h-64zM128 384h64v-64h-64zM832 448h64v-64h-64zM768 448h64v-64h-64zM704 448h64v-64h-64zM640 448h64v-64h-64zM576 448h64v-64h-64zM512 448h64v-64h-64zM448 448h64v-64h-64zM384 448h64v-64h-64zM256 448h64v-64h-64zM128 448h64v-64h-64zM768 512h64v-64h-64zM704 512h64v-64h-64zM640 512h64v-64h-64zM576 512h64v-64h-64zM512 512h64v-64h-64zM448 512h64v-64h-64zM384 512h64v-64h-64zM320 512h64v-64h-64zM192 512h64v-64h-64zM704 576h64v-64h-64zM640 576h64v-64h-64zM576 576h64v-64h-64zM512 576h64v-64h-64zM448 576h64v-64h-64zM384 576h64v-64h-64zM320 576h64v-64h-64zM256 576h64v-64h-64zM640 640h64v-64h-64zM576 640h64v-64h-64zM512 640h64v-64h-64zM448 640h64v-64h-64zM384 640h64v-64h-64zM320 640h64v-64h-64zM576 704h64v-64h-64zM512 704h64v-64h-64zM448 704h64v-64h-64zM384 704h64v-64h-64zM512 768h64v-64h-64zM448 768h64v-64h-64z" />
<glyph unicode="&#xe911;" glyph-name="redstone-dust-outline" d="M576 128h64v-64h-64zM512 128h64v-64h-64zM448 128h64v-64h-64zM384 128h64v-64h-64zM704 192h64v-64h-64zM640 192h64v-64h-64zM576 192h64v-64h-64zM448 192h64v-64h-64zM320 192h64v-64h-64zM256 192h64v-64h-64zM768 256h64v-64h-64zM640 256h64v-64h-64zM512 256h64v-64h-64zM384 256h64v-64h-64zM256 256h64v-64h-64zM192 256h64v-64h-64zM832 320h64v-64h-64zM576 320h64v-64h-64zM448 320h64v-64h-64zM320 320h64v-64h-64zM192 320h64v-64h-64zM128 320h64v-64h-64zM832 384h64v-64h-64zM512 384h64v-64h-64zM384 384h64v-64h-64zM256 384h64v-64h-64zM128 384h64v-64h-64zM832 448h64v-64h-64zM448 448h64v-64h-64zM320 448h64v-64h-64zM192 448h64v-64h-64zM128 448h64v-64h-64zM768 512h64v-64h-64zM384 512h64v-64h-64zM256 512h64v-64h-64zM192 512h64v-64h-64zM704 576h64v-64h-64zM320 576h64v-64h-64zM256 576h64v-64h-64zM640 640h64v-64h-64zM384 640h64v-64h-64zM320 640h64v-64h-64zM576 704h64v-64h-64zM448 704h64v-64h-64zM384 704h64v-64h-64zM512 768h64v-64h-64zM448 768h64v-64h-64z" />
<glyph unicode="&#xe912;" glyph-name="spade" d="M512 0h64v-64h-64zM448 0h64v-64h-64zM512 64h64v-64h-64zM448 64h64v-64h-64zM512 128h64v-64h-64zM448 128h64v-64h-64zM512 192h64v-64h-64zM448 192h64v-64h-64zM512 256h64v-64h-64zM448 256h64v-64h-64zM512 320h64v-64h-64zM448 320h64v-64h-64zM512 384h64v-64h-64zM448 384h64v-64h-64zM512 448h64v-64h-64zM448 448h64v-64h-64zM512 512h64v-64h-64zM448 512h64v-64h-64zM512 576h64v-64h-64zM448 576h64v-64h-64zM640 640h64v-64h-64zM576 640h64v-64h-64zM512 640h64v-64h-64zM448 640h64v-64h-64zM384 640h64v-64h-64zM320 640h64v-64h-64zM640 704h64v-64h-64zM576 704h64v-64h-64zM512 704h64v-64h-64zM448 704h64v-64h-64zM384 704h64v-64h-64zM320 704h64v-64h-64zM640 768h64v-64h-64zM576 768h64v-64h-64zM512 768h64v-64h-64zM448 768h64v-64h-64zM384 768h64v-64h-64zM320 768h64v-64h-64zM640 832h64v-64h-64zM576 832h64v-64h-64zM512 832h64v-64h-64zM448 832h64v-64h-64zM384 832h64v-64h-64zM320 832h64v-64h-64zM576 896h64v-64h-64zM512 896h64v-64h-64zM448 896h64v-64h-64zM384 896h64v-64h-64zM512 960h64v-64h-64zM448 960h64v-64h-64z" />
<glyph unicode="&#xe913;" glyph-name="sword" d="M512 0h64v-64h-64zM448 0h64v-64h-64zM512 64h64v-64h-64zM448 64h64v-64h-64zM512 128h64v-64h-64zM448 128h64v-64h-64zM576 192h64v-64h-64zM512 192h64v-64h-64zM448 192h64v-64h-64zM384 192h64v-64h-64zM640 256h64v-64h-64zM576 256h64v-64h-64zM512 256h64v-64h-64zM448 256h64v-64h-64zM384 256h64v-64h-64zM320 256h64v-64h-64zM512 320h64v-64h-64zM448 320h64v-64h-64zM512 384h64v-64h-64zM448 384h64v-64h-64zM512 448h64v-64h-64zM448 448h64v-64h-64zM512 512h64v-64h-64zM448 512h64v-64h-64zM512 576h64v-64h-64zM448 576h64v-64h-64zM512 640h64v-64h-64zM448 640h64v-64h-64zM512 704h64v-64h-64zM448 704h64v-64h-64zM512 768h64v-64h-64zM448 768h64v-64h-64zM512 832h64v-64h-64zM448 832h64v-64h-64zM512 896h64v-64h-64zM448 896h64v-64h-64zM512 960h64v-64h-64z" />
</font>
</defs>
</svg>
