<?xml version="1.0" encoding="UTF-8" standalone="no"?>
<svg
   xmlns:dc="http://purl.org/dc/elements/1.1/"
   xmlns:cc="http://creativecommons.org/ns#"
   xmlns:rdf="http://www.w3.org/1999/02/22-rdf-syntax-ns#"
   xmlns:svg="http://www.w3.org/2000/svg"
   xmlns="http://www.w3.org/2000/svg"
   xmlns:sodipodi="http://sodipodi.sourceforge.net/DTD/sodipodi-0.dtd"
   xmlns:inkscape="http://www.inkscape.org/namespaces/inkscape"
   height="640px"
   version="1.1"
   width="640px"
   id="svg2"
   inkscape:version="0.91 r13725"
   sodipodi:docname="mc-axe.svg">
  <metadata
     id="metadata124">
    <rdf:RDF>
      <cc:Work
         rdf:about="">
        <dc:format>image/svg+xml</dc:format>
        <dc:type
           rdf:resource="http://purl.org/dc/dcmitype/StillImage" />
      </cc:Work>
    </rdf:RDF>
  </metadata>
  <sodipodi:namedview
     pagecolor="#ffffff"
     bordercolor="#666666"
     borderopacity="1"
     objecttolerance="10"
     gridtolerance="10"
     guidetolerance="10"
     inkscape:pageopacity="0"
     inkscape:pageshadow="2"
     inkscape:window-width="1360"
     inkscape:window-height="705"
     id="namedview122"
     showgrid="false"
     inkscape:zoom="1.0429825"
     inkscape:cx="304.18417"
     inkscape:cy="353.19674"
     inkscape:window-x="-8"
     inkscape:window-y="-8"
     inkscape:window-maximized="1"
     inkscape:current-layer="svg2" />
  <defs
     id="defs4" />
  <path
     id="rect120"
     style="fill:#000000"
     d="m 320,600 40,0 0,40 -40,0 z m -40,0 40,0 0,40 -40,0 z m 40,-40 40,0 0,40 -40,0 z m -40,0 40,0 0,40 -40,0 z m 40,-40 40,0 0,40 -40,0 z m -40,0 40,0 0,40 -40,0 z m 40,-40 40,0 0,40 -40,0 z m -40,0 40,0 0,40 -40,0 z m 40,-40 40,0 0,40 -40,0 z m -40,0 40,0 0,40 -40,0 z m 40,-40 40,0 0,40 -40,0 z m -40,0 40,0 0,40 -40,0 z m 40,-40 40,0 0,40 -40,0 z m -40,0 40,0 0,40 -40,0 z m 40,-40 40,0 0,40 -40,0 z m -40,0 40,0 0,40 -40,0 z m 40,-40 40,0 0,40 -40,0 z m -40,0 40,0 0,40 -40,0 z m 40,-40 40,0 0,40 -40,0 z m -40,0 40,0 0,40 -40,0 z m 40,-40 40,0 0,40 -40,0 z m -40,0 40,0 0,40 -40,0 z m -120,0 40,0 0,40 -40,0 z m -40,0 40,0 0,40 -40,0 z m 200,-40 40,0 0,40 -40,0 z m -40,0 40,0 0,40 -40,0 z m -40,0 40,0 0,40 -40,0 z m -40,0 40,0 0,40 -40,0 z m -40,0 40,0 0,40 -40,0 z m -40,0 40,0 0,40 -40,0 z m -40,0 40,0 0,40 -40,0 z m 280,-40 40,0 0,40 -40,0 z m -40,0 40,0 0,40 -40,0 z m -40,0 40,0 0,40 -40,0 z m -40,0 40,0 0,40 -40,0 z m -40,0 40,0 0,40 -40,0 z m -40,0 40,0 0,40 -40,0 z m -40,0 40,0 0,40 -40,0 z m -40,0 40,0 0,40 -40,0 z m 280,-40 40,0 0,40 -40,0 z m -40,0 40,0 0,40 -40,0 z m -40,0 40,0 0,40 -40,0 z m -40,0 40,0 0,40 -40,0 z m -40,0 40,0 0,40 -40,0 z m -40,0 40,0 0,40 -40,0 z m -40,0 40,0 0,40 -40,0 z m -40,0 40,0 0,40 -40,0 z m 240,-40 40,0 0,40 -40,0 z m -40,0 40,0 0,40 -40,0 z m -40,0 40,0 0,40 -40,0 z m -40,0 40,0 0,40 -40,0 z m -40,0 40,0 0,40 -40,0 z m -40,0 40,0 0,40 -40,0 z m -40,0 40,0 0,40 -40,0 z m 240,-40 40,0 0,40 -40,0 z m -40,0 40,0 0,40 -40,0 z m -120,0 40,0 0,40 -40,0 z m -40,0 40,0 0,40 -40,0 z" />
</svg>
