<?xml version="1.0" encoding="UTF-8" standalone="no"?>
<svg
   xmlns:dc="http://purl.org/dc/elements/1.1/"
   xmlns:cc="http://creativecommons.org/ns#"
   xmlns:rdf="http://www.w3.org/1999/02/22-rdf-syntax-ns#"
   xmlns:svg="http://www.w3.org/2000/svg"
   xmlns="http://www.w3.org/2000/svg"
   xmlns:sodipodi="http://sodipodi.sourceforge.net/DTD/sodipodi-0.dtd"
   xmlns:inkscape="http://www.inkscape.org/namespaces/inkscape"
   height="640px"
   version="1.1"
   width="640px"
   id="svg2"
   inkscape:version="0.91 r13725"
   sodipodi:docname="ingot.svg">
  <metadata
     id="metadata164">
    <rdf:RDF>
      <cc:Work
         rdf:about="">
        <dc:format>image/svg+xml</dc:format>
        <dc:type
           rdf:resource="http://purl.org/dc/dcmitype/StillImage" />
      </cc:Work>
    </rdf:RDF>
  </metadata>
  <sodipodi:namedview
     pagecolor="#ffffff"
     bordercolor="#666666"
     borderopacity="1"
     objecttolerance="10"
     gridtolerance="10"
     guidetolerance="10"
     inkscape:pageopacity="0"
     inkscape:pageshadow="2"
     inkscape:window-width="690"
     inkscape:window-height="480"
     id="namedview162"
     showgrid="false"
     inkscape:zoom="0.36875"
     inkscape:cx="320"
     inkscape:cy="320"
     inkscape:window-x="0"
     inkscape:window-y="0"
     inkscape:window-maximized="0"
     inkscape:current-layer="svg2" />
  <defs
     id="defs4" />
  <path
     id="rect160"
     style="fill:#000000"
     d="m 200,480 40,0 0,40 -40,0 z m -80,0 40,0 0,40 -40,0 z m 200,-40 40,0 0,40 -40,0 z m -40,0 40,0 0,40 -40,0 z m -40,0 40,0 0,40 -40,0 z m -40,0 40,0 0,40 -40,0 z m -80,0 40,0 0,40 -40,0 z m -40,0 40,0 0,40 -40,0 z m 360,-40 40,0 0,40 -40,0 z m -40,0 40,0 0,40 -40,0 z m -40,0 40,0 0,40 -40,0 z m -40,0 40,0 0,40 -40,0 z m -40,0 40,0 0,40 -40,0 z m -40,0 40,0 0,40 -40,0 z m -40,0 40,0 0,40 -40,0 z m -80,0 40,0 0,40 -40,0 z m -40,0 40,0 0,40 -40,0 z m -40,0 40,0 0,40 -40,0 z m 520,-40 40,0 0,40 -40,0 z m -40,0 40,0 0,40 -40,0 z m -40,0 40,0 0,40 -40,0 z m -40,0 40,0 0,40 -40,0 z m -40,0 40,0 0,40 -40,0 z m -40,0 40,0 0,40 -40,0 z m -40,0 40,0 0,40 -40,0 z m -40,0 40,0 0,40 -40,0 z m -40,0 40,0 0,40 -40,0 z m -40,0 40,0 0,40 -40,0 z m -80,0 40,0 0,40 -40,0 z m -40,0 40,0 0,40 -40,0 z m -40,0 40,0 0,40 -40,0 z m 520,-40 40,0 0,40 -40,0 z m -40,0 40,0 0,40 -40,0 z m -40,0 40,0 0,40 -40,0 z m -40,0 40,0 0,40 -40,0 z m -40,0 40,0 0,40 -40,0 z m -40,0 40,0 0,40 -40,0 z m -40,0 40,0 0,40 -40,0 z m -160,0 40,0 0,40 -40,0 z m -80,0 40,0 0,40 -40,0 z m -40,0 40,0 0,40 -40,0 z m 520,-40 40,0 0,40 -40,0 z m -40,0 40,0 0,40 -40,0 z m -40,0 40,0 0,40 -40,0 z m -40,0 40,0 0,40 -40,0 z m -160,0 40,0 0,40 -40,0 z m -40,0 40,0 0,40 -40,0 z m -40,0 40,0 0,40 -40,0 z m -40,0 40,0 0,40 -40,0 z m -40,0 40,0 0,40 -40,0 z m -80,0 40,0 0,40 -40,0 z m 360,-40 40,0 0,40 -40,0 z m -40,0 40,0 0,40 -40,0 z m -40,0 40,0 0,40 -40,0 z m -40,0 40,0 0,40 -40,0 z m -40,0 40,0 0,40 -40,0 z m -40,0 40,0 0,40 -40,0 z m -40,0 40,0 0,40 -40,0 z m -40,0 40,0 0,40 -40,0 z m -40,0 40,0 0,40 -40,0 z m 440,-40 40,0 0,40 -40,0 z m -40,0 40,0 0,40 -40,0 z m -40,0 40,0 0,40 -40,0 z m -40,0 40,0 0,40 -40,0 z m -40,0 40,0 0,40 -40,0 z m -40,0 40,0 0,40 -40,0 z m -40,0 40,0 0,40 -40,0 z m -40,0 40,0 0,40 -40,0 z m -40,0 40,0 0,40 -40,0 z m -40,0 40,0 0,40 -40,0 z m 320,-40 40,0 0,40 -40,0 z m -40,0 40,0 0,40 -40,0 z m -40,0 40,0 0,40 -40,0 z m -40,0 40,0 0,40 -40,0 z m -40,0 40,0 0,40 -40,0 z m -40,0 40,0 0,40 -40,0 z m 160,-40 40,0 0,40 -40,0 z m -40,0 40,0 0,40 -40,0 z" />
</svg>
